<svg xmlns="http://www.w3.org/2000/svg" width="342" height="30" viewBox="0 0 342 30" fill="none"><path d="M34.4722 2.50903V26.8122H55.3997V29.5976H61.6304V23.3184L58.5634 23.2835L58.581 11.7572L52.2623 11.7003L52.2271 20.3582L40.7469 20.4237L40.6853 2.50903H34.4722Z" fill="black"></path><path d="M43.5676 2.50923V17.6561H49.6399V8.69652L58.5812 8.75337V2.50049L43.5676 2.50923Z" fill="black"></path><g style="mix-blend-mode:multiply"><path d="M3.34681 14.6346L11.3552 29.8427C11.4652 30.0526 11.7644 30.0526 11.8745 29.8427L19.8081 14.7046C19.9313 14.4729 19.7069 14.2105 19.456 14.2936L14.5278 15.9246C14.1846 16.0383 13.9822 15.5573 14.299 15.3911L24.2391 10.2489C24.5471 10.0871 24.3623 9.61922 24.0235 9.71105C13.3001 12.5751 7.07381 13.747 3.56242 14.2105C3.36001 14.2367 3.25001 14.4554 3.34241 14.6346H3.34681Z" fill="black"></path></g><g style="mix-blend-mode:multiply"><path d="M25.0312 0.0124182C25.0312 0.0124182 17.3924 3.81224 11.7249 4.96225C4.44693 6.44458 0.26671 6.51454 0.26671 6.51454C0.0466987 6.57138 -0.0633071 6.81625 0.0378982 7.01739C0.0378982 7.01739 2.28201 11.6262 2.65163 12.129C10.2288 10.4849 19.0249 7.39344 23.1435 5.09343C23.1963 5.06282 25.4448 0.519645 25.4448 0.519645C25.5856 0.244168 25.3348 -0.0662893 25.0356 0.0124182H25.0312Z" fill="black"></path></g><path d="M78.0609 9.15576L82.1311 19.121L80.5426 18.8018L84.2344 9.15576H87.4906L81.1323 23.638L74.7739 9.15576H78.0653H78.0609Z" fill="black"></path><path d="M88.0934 16.095C88.0934 15.1417 88.2782 14.241 88.6434 13.3883C89.0086 12.5356 89.5191 11.7792 90.1659 11.1233C90.8171 10.4674 91.5696 9.94704 92.4276 9.57099C93.2857 9.19494 94.2053 9.00692 95.191 9.00692C96.1766 9.00692 97.0786 9.19494 97.9367 9.57099C98.7947 9.94704 99.556 10.463 100.216 11.1233C100.88 11.7835 101.395 12.5356 101.769 13.3883C102.143 14.241 102.328 15.1417 102.328 16.095C102.328 17.0482 102.143 17.9883 101.769 18.841C101.395 19.6937 100.88 20.4414 100.216 21.0885C99.5516 21.7357 98.7947 22.2385 97.9367 22.6015C97.0786 22.9644 96.1634 23.148 95.191 23.148C94.2185 23.148 93.2857 22.9644 92.4276 22.6015C91.5696 22.2385 90.8171 21.7313 90.1659 21.0885C89.5147 20.4414 89.0086 19.6937 88.6434 18.841C88.2782 17.9883 88.0934 17.0744 88.0934 16.095ZM90.9315 16.095C90.9315 16.7115 91.0415 17.2843 91.2615 17.8178C91.4816 18.3513 91.7896 18.8191 92.19 19.2302C92.5904 19.6412 93.048 19.956 93.5717 20.179C94.0953 20.4064 94.6673 20.5157 95.2834 20.5157C95.8994 20.5157 96.4274 20.402 96.9378 20.179C97.4483 19.9516 97.8927 19.6368 98.2711 19.2302C98.6495 18.8235 98.9443 18.3513 99.16 17.8178C99.3756 17.2843 99.4812 16.7115 99.4812 16.095C99.4812 15.4784 99.3712 14.8838 99.1512 14.3459C98.9311 13.8081 98.6275 13.3315 98.2447 12.9248C97.8575 12.5182 97.4087 12.1989 96.8894 11.9759C96.3702 11.7486 95.8114 11.6393 95.2042 11.6393C94.5969 11.6393 94.0381 11.7529 93.5189 11.9759C92.9996 12.2033 92.5464 12.5182 92.1548 12.9248C91.7632 13.3315 91.4596 13.8037 91.2483 14.3459C91.0327 14.8838 90.9271 15.4697 90.9271 16.095H90.9315ZM98.7287 5.90234L95.9258 8.44285H94.3153L95.7894 5.90234H98.7243H98.7287Z" fill="black"></path><path d="M109.285 9.15576C110.156 9.15576 110.931 9.26508 111.613 9.48371C112.295 9.70234 112.867 10.0172 113.324 10.4238C113.786 10.8305 114.134 11.3202 114.376 11.8887C114.614 12.4571 114.737 13.0999 114.737 13.817C114.737 14.3811 114.653 14.9451 114.482 15.5092C114.31 16.0733 114.033 16.5893 113.65 17.0528C113.263 17.5163 112.757 17.8879 112.128 18.1722C111.498 18.4564 110.715 18.5963 109.782 18.5963H107.815V22.9952H105.07V9.15576H109.289H109.285ZM109.76 15.964C110.178 15.964 110.521 15.894 110.803 15.7585C111.08 15.6185 111.296 15.4436 111.454 15.2337C111.613 15.0195 111.727 14.7965 111.793 14.5647C111.864 14.333 111.899 14.1143 111.899 13.9176C111.899 13.7689 111.877 13.5765 111.833 13.3448C111.789 13.113 111.696 12.8769 111.56 12.6408C111.419 12.4046 111.208 12.2035 110.926 12.0373C110.64 11.8755 110.262 11.7925 109.782 11.7925H107.815V15.9683H109.765L109.76 15.964ZM112.334 17.6562L115.78 22.9952H112.581L109.061 17.7305L112.334 17.6562Z" fill="black"></path><path d="M116.818 9.15576H126.204V11.7881H122.816V22.9952H120.07V11.7881H116.814V9.15576H116.818Z" fill="black"></path><path d="M127.528 22.9952L132.487 15.2469L133.772 17.9929L130.934 22.9952H127.528ZM127.717 9.15576H131.22L140.302 22.9952H136.764L127.717 9.15576ZM133.961 14.2324L136.839 9.15576H140.17L135.382 16.5849L133.961 14.2324Z" fill="black"></path><path d="M147.875 16.0949C147.875 15.1417 148.06 14.2409 148.425 13.3882C148.79 12.5356 149.301 11.7791 149.947 11.1232C150.599 10.4673 151.351 9.94695 152.209 9.57091C153.067 9.19486 153.987 9.00684 154.972 9.00684C155.958 9.00684 156.86 9.19486 157.718 9.57091C158.576 9.94695 159.337 10.4629 159.998 11.1232C160.658 11.7835 161.177 12.5356 161.551 13.3882C161.92 14.2409 162.11 15.1417 162.11 16.0949C162.11 17.0481 161.925 17.9882 161.551 18.8409C161.177 19.6936 160.662 20.4413 159.998 21.0884C159.337 21.7356 158.576 22.2385 157.718 22.6014C156.86 22.9643 155.945 23.148 154.972 23.148C154 23.148 153.067 22.9643 152.209 22.6014C151.351 22.2385 150.599 21.7312 149.947 21.0884C149.296 20.4413 148.79 19.6936 148.425 18.8409C148.06 17.9882 147.875 17.0744 147.875 16.0949ZM150.713 16.0949C150.713 16.6983 150.823 17.2624 151.043 17.7958C151.263 18.3293 151.571 18.7972 151.972 19.2082C152.372 19.6192 152.83 19.9341 153.353 20.1571C153.877 20.3845 154.449 20.4938 155.065 20.4938C155.681 20.4938 156.209 20.3801 156.719 20.1571C157.23 19.9297 157.674 19.6192 158.053 19.217C158.431 18.8147 158.726 18.3468 158.941 17.8177C159.157 17.2842 159.263 16.7114 159.263 16.0949C159.263 15.4783 159.153 14.9274 158.933 14.3939C158.713 13.8605 158.409 13.3926 158.026 12.9947C157.639 12.5924 157.19 12.2819 156.671 12.0546C156.152 11.8272 155.593 11.7179 154.986 11.7179C154.378 11.7179 153.82 11.8316 153.3 12.0546C152.781 12.2819 152.328 12.5924 151.936 12.9947C151.545 13.397 151.241 13.8648 151.03 14.3939C150.814 14.9274 150.709 15.4958 150.709 16.0949H150.713ZM158.567 20.3276H162.884V22.9993H154.972L158.567 20.3276Z" fill="black"></path><path d="M169.845 9.15576C170.716 9.15576 171.491 9.26508 172.173 9.48371C172.855 9.70234 173.427 10.0172 173.885 10.4238C174.347 10.8305 174.694 11.3202 174.936 11.8887C175.174 12.4571 175.297 13.0999 175.297 13.817C175.297 14.3811 175.213 14.9451 175.042 15.5092C174.87 16.0733 174.593 16.5893 174.21 17.0528C173.823 17.5163 173.317 17.8879 172.688 18.1722C172.058 18.4564 171.275 18.5963 170.342 18.5963H168.376V22.9952H165.63V9.15576H169.85H169.845ZM170.32 15.964C170.738 15.964 171.082 15.894 171.363 15.7585C171.64 15.6185 171.856 15.4436 172.014 15.2337C172.173 15.0195 172.287 14.7965 172.353 14.5647C172.424 14.333 172.459 14.1143 172.459 13.9176C172.459 13.7689 172.437 13.5765 172.393 13.3448C172.349 13.113 172.257 12.8769 172.12 12.6408C171.979 12.4046 171.768 12.2035 171.486 12.0373C171.2 11.8755 170.822 11.7925 170.342 11.7925H168.376V15.9683H170.325L170.32 15.964ZM172.895 17.6562L176.34 22.9952H173.141L169.621 17.7305L172.895 17.6562Z" fill="black"></path><path d="M183.812 9.15576H193.197V11.7881H189.809V22.9952H187.063V11.7881H183.807V9.15576H183.812Z" fill="black"></path><path d="M194.522 16.0949C194.522 15.1417 194.707 14.2409 195.072 13.3882C195.437 12.5356 195.947 11.7791 196.594 11.1232C197.245 10.4673 197.998 9.94695 198.856 9.57091C199.714 9.19486 200.634 9.00684 201.619 9.00684C202.605 9.00684 203.507 9.19486 204.365 9.57091C205.223 9.94695 205.984 10.4629 206.644 11.1232C207.304 11.7835 207.824 12.5356 208.198 13.3882C208.567 14.2409 208.756 15.1417 208.756 16.0949C208.756 17.0481 208.572 17.9882 208.198 18.8409C207.824 19.6936 207.309 20.4413 206.644 21.0884C205.984 21.7356 205.223 22.2385 204.365 22.6014C203.507 22.9643 202.592 23.148 201.619 23.148C200.647 23.148 199.714 22.9643 198.856 22.6014C197.998 22.2385 197.245 21.7312 196.594 21.0884C195.943 20.4413 195.437 19.6936 195.072 18.8409C194.707 17.9882 194.522 17.0744 194.522 16.0949ZM197.36 16.0949C197.36 16.7114 197.47 17.2842 197.69 17.8177C197.91 18.3512 198.218 18.819 198.618 19.2301C199.019 19.6411 199.476 19.9559 200 20.1789C200.524 20.4063 201.096 20.5156 201.712 20.5156C202.328 20.5156 202.856 20.4019 203.366 20.1789C203.877 19.9516 204.321 19.6367 204.699 19.2301C205.078 18.8234 205.373 18.3512 205.588 17.8177C205.804 17.2842 205.91 16.7114 205.91 16.0949C205.91 15.4783 205.8 14.8837 205.58 14.3458C205.359 13.808 205.056 13.3314 204.673 12.9247C204.286 12.5181 203.837 12.1989 203.318 11.9759C202.799 11.7485 202.24 11.6392 201.632 11.6392C201.025 11.6392 200.466 11.7529 199.947 11.9759C199.428 12.2032 198.975 12.5181 198.583 12.9247C198.192 13.3314 197.888 13.8036 197.677 14.3458C197.461 14.8837 197.355 15.4696 197.355 16.0949H197.36Z" fill="black"></path><path d="M214.283 14.0837L214.208 14.779L214.626 14.2543L219.167 9.15576H222.723L216.972 15.3605L222.745 22.9952H219.264L214.969 17.0921L214.287 17.7699V22.9995H211.506V9.16013H214.287V14.0881L214.283 14.0837Z" fill="black"></path><path d="M224.822 9.15576H234.322V11.7881H227.568V14.7396H233.547V17.372H227.568V20.3628H234.59V22.9952H224.826V9.15576H224.822Z" fill="black"></path><path d="M249.898 23.5592L239.338 14.0793L240.152 14.5297L240.209 22.9908H237.428V8.60913H237.543L247.874 18.0497L247.267 17.7873L247.21 9.15571H249.973V23.5592H249.898Z" fill="black"></path><path d="M253.568 9.15576H256.314V22.9952H253.568V9.15576Z" fill="black"></path><path d="M258.963 22.9951C259.39 22.3173 259.786 21.6964 260.147 21.1323C260.508 20.5683 260.912 19.9298 261.357 19.2127C261.806 18.5 262.263 17.7654 262.739 17.0133C263.214 16.2612 263.671 15.5266 264.12 14.8139C264.569 14.1011 264.974 13.4583 265.33 12.8943C265.691 12.3302 266.083 11.7093 266.514 11.0315L266.818 11.7836H261.801C261.537 11.7836 261.26 11.7224 260.978 11.6043C260.697 11.4863 260.455 11.3245 260.261 11.1146C260.063 10.9091 259.966 10.6773 259.966 10.4281V8.45166H262.483V8.71402C262.483 8.9895 262.527 9.12942 262.615 9.13816C262.703 9.14254 262.862 9.14691 263.091 9.14691H270.831L263.487 20.6557L263.337 20.354H270.813V22.9863H258.968L258.963 22.9951Z" fill="black"></path><path d="M272.001 22.9951L278.284 8.60913H278.434L284.718 22.9951H281.536L277.523 12.8768L279.512 11.5213L274.707 22.9951H272.001ZM276.296 17.9928H280.476L281.439 20.2885H275.442L276.296 17.9928Z" fill="black"></path><path d="M286.742 22.9952V9.15576H290.904C292.303 9.15576 293.496 9.36128 294.482 9.77668C295.467 10.1921 296.259 10.743 296.858 11.4339C297.456 12.1248 297.896 12.8944 298.173 13.747C298.451 14.5997 298.591 15.4567 298.591 16.3225C298.591 17.3501 298.407 18.2771 298.033 19.0948C297.659 19.9168 297.153 20.6165 296.51 21.2024C295.868 21.7883 295.124 22.23 294.275 22.536C293.43 22.8421 292.532 22.9952 291.586 22.9952H286.742ZM289.487 20.3628H291.115C291.811 20.3628 292.44 20.271 293.007 20.0917C293.575 19.9081 294.064 19.6414 294.473 19.2915C294.882 18.9417 295.199 18.5001 295.419 17.9666C295.639 17.4332 295.749 16.821 295.749 16.1345C295.749 15.2337 295.599 14.4948 295.304 13.9263C295.01 13.3579 294.644 12.9162 294.209 12.6014C293.773 12.2866 293.329 12.0723 292.875 11.9543C292.422 11.8362 292.035 11.775 291.723 11.775H289.487V20.3716V20.3628Z" fill="black"></path><path d="M300.484 16.0949C300.484 15.1417 300.668 14.2409 301.034 13.3882C301.399 12.5356 301.909 11.7791 302.556 11.1232C303.207 10.4673 303.96 9.94695 304.818 9.57091C305.676 9.19486 306.596 9.00684 307.581 9.00684C308.567 9.00684 309.469 9.19486 310.327 9.57091C311.185 9.94695 311.946 10.4629 312.606 11.1232C313.266 11.7835 313.786 12.5356 314.16 13.3882C314.529 14.2409 314.718 15.1417 314.718 16.0949C314.718 17.0481 314.534 17.9882 314.16 18.8409C313.786 19.6936 313.271 20.4413 312.606 21.0884C311.946 21.7356 311.185 22.2385 310.327 22.6014C309.469 22.9643 308.554 23.148 307.581 23.148C306.609 23.148 305.676 22.9643 304.818 22.6014C303.96 22.2385 303.207 21.7312 302.556 21.0884C301.905 20.4413 301.399 19.6936 301.034 18.8409C300.668 17.9882 300.484 17.0744 300.484 16.0949ZM303.322 16.0949C303.322 16.7114 303.432 17.2842 303.652 17.8177C303.872 18.3512 304.18 18.819 304.58 19.2301C304.981 19.6411 305.438 19.9559 305.962 20.1789C306.486 20.4063 307.058 20.5156 307.674 20.5156C308.29 20.5156 308.818 20.4019 309.328 20.1789C309.839 19.9516 310.283 19.6367 310.661 19.2301C311.04 18.8234 311.335 18.3512 311.55 17.8177C311.766 17.2842 311.871 16.7114 311.871 16.0949C311.871 15.4783 311.761 14.8837 311.541 14.3458C311.321 13.808 311.018 13.3314 310.635 12.9247C310.248 12.5181 309.799 12.1989 309.28 11.9759C308.76 11.7485 308.202 11.6392 307.594 11.6392C306.987 11.6392 306.428 11.7529 305.909 11.9759C305.39 12.2032 304.937 12.5181 304.545 12.9247C304.153 13.3314 303.85 13.8036 303.639 14.3458C303.423 14.8837 303.317 15.4696 303.317 16.0949H303.322Z" fill="black"></path><path d="M321.68 9.15576C322.551 9.15576 323.325 9.26508 324.007 9.48371C324.689 9.70234 325.261 10.0172 325.719 10.4238C326.181 10.8305 326.529 11.3202 326.771 11.8887C327.008 12.4571 327.131 13.0999 327.131 13.817C327.131 14.3811 327.048 14.9451 326.876 15.5092C326.705 16.0733 326.427 16.5893 326.045 17.0528C325.657 17.5163 325.151 17.8879 324.522 18.1722C323.893 18.4564 323.11 18.5963 322.177 18.5963H320.21V22.9952H317.464V9.15576H321.684H321.68ZM322.155 15.964C322.573 15.964 322.916 15.894 323.198 15.7585C323.475 15.6185 323.69 15.4436 323.849 15.2337C324.007 15.0195 324.122 14.7965 324.188 14.5647C324.258 14.333 324.293 14.1143 324.293 13.9176C324.293 13.7689 324.271 13.5765 324.227 13.3448C324.183 13.113 324.091 12.8769 323.954 12.6408C323.814 12.4046 323.602 12.2035 323.321 12.0373C323.035 11.8755 322.656 11.7925 322.177 11.7925H320.21V15.9683H322.159L322.155 15.964ZM324.729 17.6562L328.174 22.9952H324.975L321.455 17.7305L324.729 17.6562Z" fill="black"></path><path d="M328.869 22.9951L335.153 8.60913H335.303L341.586 22.9951H338.405L334.392 12.8768L336.381 11.5213L331.576 22.9951H328.869ZM333.164 17.9928H337.344L338.308 20.2885H332.31L333.164 17.9928Z" fill="black"></path></svg>